<?xml version="1.0" standalone="no"?><!DOCTYPE svg PUBLIC "-//W3C//DTD SVG 1.1//EN" "http://www.w3.org/Graphics/SVG/1.1/DTD/svg11.dtd"><svg t="1733551874681" class="icon" viewBox="0 0 1024 1024" version="1.1" xmlns="http://www.w3.org/2000/svg" p-id="3340" width="256" height="256" xmlns:xlink="http://www.w3.org/1999/xlink"><path d="M155.4 678s92.5-286 290.1-122 254.4 53 254.4 53S815.6 170.2 888 245.1v638.5H140.4l15-205.6z" fill="#31d8e8" p-id="3341"></path><path d="M893.7 259.6c-101.6 5.1-99.2 202.5-123.8 273.2-31.8 91.3-110.8 169.4-217.1 137.8-90.6-26.8-150.2-201.8-260.6-135.4-75.7 45.5-113.6 145-132 227.9-0.2 0.8-0.6 1.5-0.7 2.3V851h706.1c15.6 0 28.3 12.6 28.3 28.3 0 15.6-12.6 28.3-28.3 28.3H131.3c-15.6 0-28.3-12.6-28.3-28.3V144.9c0-15.6 12.6-28.3 28.3-28.3 15.6 0 28.3 12.6 28.3 28.3v457.3c20.3-37 45.6-70.9 77.1-97.2 95.8-79.9 195.6-23.3 262.1 58.1 42.1 51.6 124.5 85.6 178.5 25.1 41.8-46.7 51.4-115.2 63.6-174.5 18.5-90.1 41.3-205 152.8-210.5 36.5-1.9 36.3 54.6 0 56.4z" fill="#1296db" p-id="3342"></path></svg>